HIERARCHY
ROOT Hips
{
	OFFSET 0.00000 0.00000 0.00000
	CHANNELS 6 Xposition Yposition Zposition Zrotation Yrotation Xrotation 
	JOINT LHipJoint
	{
		OFFSET 0 0 0
		CHANNELS 3 Zrotation Yrotation Xrotation
		JOINT LeftUpLeg
		{
			OFFSET 1.28858 -1.83292 1.03970
			CHANNELS 3 Zrotation Yrotation Xrotation
			JOINT LeftLeg
			{
				OFFSET 2.47846 -6.80952 0.00000
				CHANNELS 3 Zrotation Yrotation Xrotation
				JOINT LeftFoot
				{
					OFFSET 2.75274 -7.56311 0.00000
					CHANNELS 3 Zrotation Yrotation Xrotation
					JOINT LeftToeBase
					{
						OFFSET 0.12848 -0.35301 1.68223
						CHANNELS 3 Zrotation Yrotation Xrotation
						End Site
						{
							OFFSET 0.00000 -0.00000 0.87311
						}
					}
				}
			}
		}
	}
	JOINT RHipJoint
	{
		OFFSET 0 0 0
		CHANNELS 3 Zrotation Yrotation Xrotation
		JOINT RightUpLeg
		{
			OFFSET -1.31183 -1.83292 1.03970
			CHANNELS 3 Zrotation Yrotation Xrotation
			JOINT RightLeg
			{
				OFFSET -2.44740 -6.72417 0.00000
				CHANNELS 3 Zrotation Yrotation Xrotation
				JOINT RightFoot
				{
					OFFSET -2.67343 -7.34519 0.00000
					CHANNELS 3 Zrotation Yrotation Xrotation
					JOINT RightToeBase
					{
						OFFSET -0.16914 -0.46471 1.77626
						CHANNELS 3 Zrotation Yrotation Xrotation
						End Site
						{
							OFFSET -0.00000 -0.00000 0.92777
						}
					}
				}
			}
		}
	}
	JOINT LowerBack
	{
		OFFSET 0 0 0
		CHANNELS 3 Zrotation Yrotation Xrotation
		JOINT Spine
		{
			OFFSET 0.01249 2.14252 0.03842
			CHANNELS 3 Zrotation Yrotation Xrotation
			JOINT Spine1
			{
				OFFSET -0.02957 2.14199 -0.03751
				CHANNELS 3 Zrotation Yrotation Xrotation
				JOINT Neck
				{
					OFFSET 0 0 0
					CHANNELS 3 Zrotation Yrotation Xrotation
					JOINT Neck1
					{
						OFFSET -0.01678 1.65709 -0.05476
						CHANNELS 3 Zrotation Yrotation Xrotation
						JOINT Head
						{
							OFFSET 0.07912 1.58331 -0.11843
							CHANNELS 3 Zrotation Yrotation Xrotation
							End Site
							{
								OFFSET 0.03298 1.73940 -0.04271
							}
						}
					}
				}
				JOINT LeftShoulder
				{
					OFFSET 0 0 0
					CHANNELS 3 Zrotation Yrotation Xrotation
					JOINT LeftArm
					{
						OFFSET 3.39556 1.16496 0.08673
						CHANNELS 3 Zrotation Yrotation Xrotation
						JOINT LeftForeArm
						{
							OFFSET 5.23910 -0.00000 -0.00000
							CHANNELS 3 Zrotation Yrotation Xrotation
							JOINT LeftHand
							{
								OFFSET 3.31467 -0.00000 0.00000
								CHANNELS 3 Zrotation Yrotation Xrotation
								JOINT LeftFingerBase
								{
									OFFSET 0 0 0
									CHANNELS 3 Zrotation Yrotation Xrotation
									JOINT LeftHandIndex1
									{
										OFFSET 0.96590 -0.00000 0.00000
										CHANNELS 3 Zrotation Yrotation Xrotation
										End Site
										{
											OFFSET 0.77873 -0.00000 0.00000
										}
									}
								}
								JOINT LThumb
								{
									OFFSET 0 0 0
									CHANNELS 3 Zrotation Yrotation Xrotation
									End Site
									{
										OFFSET 0.79062 -0.00000 0.79062
									}
								}
							}
						}
					}
				}
				JOINT RightShoulder
				{
					OFFSET 0 0 0
					CHANNELS 3 Zrotation Yrotation Xrotation
					JOINT RightArm
					{
						OFFSET -3.27193 1.31331 0.33940
						CHANNELS 3 Zrotation Yrotation Xrotation
						JOINT RightForeArm
						{
							OFFSET -5.30252 -0.00000 0.00000
							CHANNELS 3 Zrotation Yrotation Xrotation
							JOINT RightHand
							{
								OFFSET -3.67875 -0.00000 0.00000
								CHANNELS 3 Zrotation Yrotation Xrotation
								JOINT RightFingerBase
								{
									OFFSET 0 0 0
									CHANNELS 3 Zrotation Yrotation Xrotation
									JOINT RightHandIndex1
									{
										OFFSET -0.59481 -0.00000 0.00000
										CHANNELS 3 Zrotation Yrotation Xrotation
										End Site
										{
											OFFSET -0.47955 -0.00000 0.00000
										}
									}
								}
								JOINT RThumb
								{
									OFFSET 0 0 0
									CHANNELS 3 Zrotation Yrotation Xrotation
									End Site
									{
										OFFSET -0.48687 -0.00000 0.48687
									}
								}
							}
						}
					}
				}
			}
		}
	}
}
MOTION
Frames: 10
Frame Time: .0083333
7.0746 17.8684 -29.3839 0 0 0 0 0 0 -21 0 0 0 0 0 0 0 0 0 0 0 0 0 0 21 0 0 0 0 0 0 0 0 0 0 0 0 0 0 0 0 0 0 0 0 0 0 -16 0 0 21 0 0 11 0 0 0 -8 0 0 0 0 0 0 0 0 0 0 0 0 0 0 0 0 0 0 0 0 8 0 0 0 0 0 0 0 0 0 0 0 0 0 0 0 0 0
7.0746 17.8684 -29.3839 -177.9860 -1.9106 -172.7520 0.0000 0.0000 0.0000 -17.6877 2.2815 -20.5438 2.2944 9.4540 27.2261 -1.1809 -20.4354 -0.9494 0.0299 1.1171 3.0711 0.0000 0.0000 0.0000 22.8082 7.7585 -6.4791 -0.9071 -6.0693 16.9856 -0.1520 -2.5160 -8.7393 -0.1017 2.0562 -5.6610 -3.1343 0.0352 -7.7139 -1.9729 0.3717 0.8165 -0.2489 0.0920 5.1753 -3.5287 2.9827 3.5324 3.3868 2.8530 12.1006 1.7417 1.0196 3.1719 0.0000 -0.0000 0.0000 -75.6891 -6.0710 32.2500 13.6066 -22.1695 -2.6779 -0.0000 0.0000 -15.8615 13.6024 -9.9447 -2.3929 -7.1250 0.0000 -0.0000 -9.5214 19.8234 5.8083 0.0000 -0.0000 0.0000 85.0936 -7.4527 30.6647 -12.7034 20.8511 -2.3467 0.0000 0.0000 1.0748 -8.6812 -32.0442 4.6315 7.1250 -0.0000 -0.0000 26.9375 -60.2547 -10.4707
7.0699 17.8416 -29.3991 -177.9400 -1.9547 -172.8840 0.0000 0.0000 0.0000 -17.7592 3.3368 -20.2074 2.2123 9.2949 26.7223 -1.3204 -20.9545 0.5993 0.2196 3.0167 8.3253 0.0000 0.0000 0.0000 23.0102 7.9690 -6.4772 -0.9858 -6.3197 17.7149 -0.1978 -2.7769 -9.8992 -0.2324 3.1024 -8.5641 -2.9452 0.0742 -7.4937 -1.9973 0.3878 0.6077 -0.3772 0.1095 4.8331 -3.8620 3.0690 3.7071 3.7041 2.9788 11.6509 1.8955 1.0936 2.9733 -0.0000 0.0000 0.0000 -75.7385 -5.7852 32.5022 13.9381 -22.6462 -2.8042 -0.0000 0.0000 -16.1133 13.3072 -9.1847 -2.1621 -7.1250 0.0000 -0.0000 -9.7577 20.6067 5.7823 -0.0000 0.0000 0.0000 85.1569 -7.8508 30.2647 -12.6526 20.7761 -2.3286 0.0000 0.0000 1.3527 -8.6764 -32.3292 4.6654 7.1250 -0.0000 -0.0000 27.2011 -60.5037 -10.7452
7.0656 17.8121 -29.4122 -177.8980 -2.0163 -173.0290 0.0000 0.0000 0.0000 -17.8128 4.2457 -19.8203 2.1349 9.1416 26.2393 -1.4400 -21.3818 2.1545 0.5384 4.7015 13.0590 0.0000 0.0000 0.0000 23.2132 8.1968 -6.5181 -1.0796 -6.6043 18.5482 -0.2521 -2.9969 -11.0755 -0.3111 3.5855 -9.9132 -2.8073 0.0666 -7.3413 -2.0080 0.3532 0.4730 -0.4690 0.0985 4.6076 -3.9196 3.0903 3.7987 3.7436 3.0584 11.1439 1.9083 1.1539 2.7797 -0.0000 -0.0000 0.0000 -75.8614 -5.6418 32.3759 14.1578 -22.9598 -2.8894 -0.0000 0.0000 -16.0026 13.7692 -9.5623 -2.3311 -7.1250 0.0000 -0.0000 -9.4152 20.2023 5.6606 -0.0000 -0.0000 0.0000 85.2452 -8.0936 29.7055 -12.5821 20.6718 -2.3037 0.0000 0.0000 1.8362 -8.3044 -32.7957 4.5204 7.1250 -0.0000 -0.0000 28.0167 -60.8224 -11.3116
7.0599 17.7847 -29.4243 -177.8530 -2.0630 -173.1890 0.0000 0.0000 0.0000 -17.8654 4.9752 -19.3143 2.0437 8.9566 25.6595 -1.4968 -21.4799 3.4924 0.9603 6.2399 17.4822 0.0000 0.0000 0.0000 23.4190 8.3678 -6.6989 -1.2012 -6.9539 19.5788 -0.3123 -3.1823 -12.2166 -0.3373 3.7321 -10.3241 -2.6985 0.0351 -7.2335 -1.9974 0.2939 0.3884 -0.5250 0.0735 4.4597 -3.7876 2.9856 3.8897 3.3460 3.0171 10.5299 1.7414 1.1557 2.5643 0.0000 0.0000 0.0000 -76.0695 -5.6129 32.0735 14.2232 -23.0528 -2.9149 -0.0000 0.0000 -15.8539 14.9356 -10.9303 -2.8955 -7.1250 0.0000 -0.0000 -8.5572 18.7464 5.4137 0.0000 0.0000 0.0000 85.2878 -8.2033 29.2124 -12.4885 20.5333 -2.2707 0.0000 0.0000 2.2710 -7.5694 -33.2781 4.1703 7.1250 -0.0000 -0.0000 29.2323 -61.0620 -12.0189
7.0484 17.7567 -29.4456 -177.7790 -1.8479 -173.6220 0.0000 0.0000 0.0000 -17.8956 5.7624 -18.5057 1.9649 8.7927 25.1488 -1.5103 -21.4428 4.2093 1.3290 7.3004 20.6085 0.0000 0.0000 0.0000 23.6638 8.4516 -6.4700 -1.3074 -7.2432 20.4378 -0.3752 -3.2483 -13.2260 -0.3347 3.7178 -10.2840 -2.5177 0.0845 -7.0000 -1.9712 0.3391 0.4154 -0.5940 0.1025 4.3564 -3.7862 2.9824 4.0576 3.1598 3.0917 9.8128 1.6653 1.2168 2.2951 0.0000 -0.0000 0.0000 -76.3467 -5.5337 31.7368 14.3217 -23.1928 -2.9536 -0.0000 0.0000 -15.8523 15.6764 -11.7776 -3.2785 -7.1250 0.0000 -0.0000 -8.0290 17.8315 5.2365 0.0000 -0.0000 0.0000 85.2793 -8.2799 28.6995 -12.3958 20.3955 -2.2383 0.0000 0.0000 2.7481 -6.8002 -33.4261 3.7582 7.1250 -0.0000 -0.0000 30.1606 -61.0024 -12.3978
7.0348 17.6955 -29.4654 -177.6700 -1.4095 -174.2330 0.0000 0.0000 0.0000 -17.8942 6.5361 -17.2109 1.8930 8.6395 24.6741 -1.5039 -21.1960 5.7587 2.6679 10.1369 29.4213 0.0000 0.0000 0.0000 23.9083 8.4705 -5.9675 -1.3997 -7.4841 21.1578 -0.4417 -3.0164 -14.0237 -0.3444 3.7709 -10.4331 -2.2605 0.2286 -6.7195 -1.9417 0.5102 0.5579 -0.6902 0.1958 4.3470 -3.8023 3.1977 3.9253 3.4663 3.3999 9.5509 1.7670 1.3917 2.2158 0.0000 0.0000 0.0000 -76.6538 -5.5169 31.3457 14.4733 -23.4072 -3.0136 -0.0000 0.0000 -15.8847 15.8172 -11.8592 -3.3319 -7.1250 0.0000 -0.0000 -7.9305 17.7381 5.1874 0.0000 0.0000 0.0000 85.2878 -8.3160 27.9810 -12.3193 20.2818 -2.2117 0.0000 0.0000 3.3927 -6.2384 -33.2096 3.4263 7.1250 -0.0000 -0.0000 30.5151 -60.6831 -12.3259
7.0235 17.6886 -29.4862 -177.5920 -1.0684 -174.7800 0.0000 0.0000 0.0000 -17.8208 6.8609 -16.3144 1.8397 8.5239 24.3169 -1.4758 -21.0602 5.2244 2.5623 9.9502 28.8157 0.0000 0.0000 0.0000 24.0861 8.3854 -5.3683 -1.4583 -7.6325 21.6032 -0.5013 -2.7725 -14.6740 -0.3685 3.8992 -10.7931 -2.0226 0.3648 -6.4042 -1.9259 0.6699 0.6673 -0.7921 0.2830 4.2846 -3.8150 3.1400 4.1178 3.2991 3.3913 8.8431 1.6986 1.4088 1.9527 -0.0000 0.0000 0.0000 -76.9559 -5.5567 31.0299 14.5449 -23.5084 -3.0421 -0.0000 0.0000 -15.9635 16.0007 -12.0598 -3.4287 -7.1250 0.0000 -0.0000 -7.8020 17.5191 5.1396 -0.0000 0.0000 0.0000 85.2817 -8.4359 27.4495 -12.3054 20.2611 -2.2069 0.0000 0.0000 3.6011 -6.1814 -33.0641 3.3816 7.1250 -0.0000 -0.0000 30.4303 -60.5457 -12.1875
7.0203 17.6900 -29.4992 -177.4790 -1.0205 -175.0490 0.0000 0.0000 0.0000 -17.6904 6.8829 -15.7684 1.7969 8.4295 24.0264 -1.4536 -20.9553 4.8242 2.4272 9.7044 28.0245 0.0000 0.0000 0.0000 24.2750 8.3974 -4.9871 -1.4949 -7.7236 21.8777 -0.5429 -2.7398 -15.1851 -0.4350 4.2325 -11.7318 -1.8563 0.3817 -6.2332 -1.8623 0.6762 0.6709 -0.8196 0.2918 4.1928 -3.5539 3.0993 4.2043 2.8402 3.4215 8.2571 1.4939 1.4463 1.7569 -0.0000 0.0000 0.0000 -77.2729 -5.5274 30.7271 14.6288 -23.6264 -3.0756 -0.0000 0.0000 -16.0365 16.2858 -12.1887 -3.5297 -7.1250 0.0000 -0.0000 -7.6037 17.3659 5.0324 -0.0000 0.0000 0.0000 85.2135 -8.5969 27.2354 -12.3313 20.2996 -2.2159 0.0000 0.0000 3.3816 -6.4894 -33.1599 3.5603 7.1250 -0.0000 -0.0000 30.2131 -60.7009 -12.2034
7.0182 17.6957 -29.5130 -177.3620 -0.9681 -175.2610 0.0000 0.0000 0.0000 -17.5510 6.7217 -15.3153 1.7754 8.3817 23.8795 -1.4228 -20.8227 4.2442 2.2519 9.3721 26.9665 0.0000 0.0000 0.0000 24.4408 8.3120 -4.5129 -1.4872 -7.7044 21.8197 -0.5818 -2.5685 -15.5691 -0.5117 4.5850 -12.7286 -1.7106 0.3779 -6.2002 -1.7911 0.6620 0.7149 -0.8289 0.2892 4.2206 -3.4548 3.0842 4.0443 2.5866 3.4686 7.8607 1.3927 1.4892 1.6605 0.0000 0.0000 0.0000 -77.5866 -5.5305 30.3725 14.7670 -23.8205 -3.1312 -0.0000 0.0000 -16.1310 16.4533 -11.9788 -3.5076 -7.1250 0.0000 -0.0000 -7.4869 17.5694 4.9200 0.0000 0.0000 0.0000 85.1364 -8.5951 27.0609 -12.3049 20.2603 -2.2067 0.0000 0.0000 3.1409 -6.7205 -33.1394 3.6858 7.1250 -0.0000 -0.0000 29.9592 -60.7387 -12.1170
